<?xml version="1.0" encoding="UTF-8"?>
<svg xmlns="http://www.w3.org/2000/svg" viewBox="0 0 603.04 742.93">
  <defs>
    <style>
      .cls-1 {
        mix-blend-mode: multiply;
        opacity: .06;
      }

      .cls-1, .cls-2 {
        fill: #231f20;
      }

      .cls-3 {
        fill: #fff;
      }

      .cls-4 {
        isolation: isolate;
      }
    </style>
  </defs>
  <g class="cls-4">
    <g id="Layer_1" data-name="Layer 1">
      <g>
        <g>
          <path d="M453.75,403.3c-.89,1.18-.74,2.48-.81,3.74-.57,9.8-1.02,19.6-1.68,29.39-.74,10.84-1.69,21.66-2.49,32.49-.6,8.16-1.11,16.32-1.67,24.48-.21,3.03-.48,6.06-.63,9.09-.07,1.39-.05,2.82.14,4.2,1.32,9.44,1.02,18.89.09,28.32-.87,8.83-1.96,17.64-2.84,26.47-.58,5.83-.42,11.68.07,17.51.74,8.73,1.64,17.44,2.38,26.17.41,4.79.08,9.55-.65,14.31-.57,3.69-.92,7.42-1.14,11.15-.88,15.18-1.09,30.37-.75,45.56.11,4.88,1.05,9.74,1.61,14.61.55,4.76,1.16,9.5,1.62,14.27.33,3.4-.3,6.76-.75,10.12-.15,1.15-.36,2.3-.56,3.45-.44,2.48-1.75,3.72-4.26,3.81-4.36.16-8.59-.7-12.79-1.77-.78-.2-1.53-.59-2.22-1.03-3.77-2.38-7.12-5.29-10.33-8.38-.33-.32-.62-.71-.88-1.09-2.38-3.5-.48-7.79,3.76-8.39,1.52-.22,3.01-.06,4.47.54.81.33,1.6,1.07,2.76.48.04-.35.25-.84.13-1.24-1.23-4.18-1.24-8.53-1.74-12.81-1.04-8.85-3.05-17.48-5.58-25.99-2.89-9.74-5.94-19.42-8.9-29.14-2.35-7.71-4.44-15.49-5.66-23.47-.51-3.34-.92-6.72-1.05-10.09-.39-10.05-.05-20.1.74-30.12.42-5.24,1.13-10.45,1.68-15.67.15-1.39.21-2.8.22-4.19.11-12.62,0-25.25-.72-37.85-.83-14.6-2.68-29.05-6.92-43.13-3.31-10.97-5.52-22.19-7.16-33.53-2.35-16.24-3.16-32.56-2.52-48.94.39-10.04,1.36-20.04,3.13-29.95,1.89-10.57,3.8-21.14,5.58-31.73,2.14-12.69,3.59-25.44,3.16-38.35-.21-6.1-1.02-12.09-2.25-18.05-.12-.57-.31-1.13-.51-1.67-.11-.31-.32-.58-.51-.9-.87.45-.54,1.23-.53,1.81.05,3.21-.61,6.22-1.95,9.16-1.75,3.86-2.51,8.01-3.08,12.18-.88,6.49-1.23,13.02-1.26,19.57,0,1.73-.23,3.51-.72,5.17-1.2,4.15-2.63,8.22-3.92,12.34-2.17,6.94-5.19,13.5-8.84,19.78-2.23,3.84-4.15,7.83-5.23,12.19-.41,1.68-1.2,3.29-1.94,4.87-.83,1.8-1.75,3.57-2.71,5.3-2.28,4.09-4.19,8.28-5.17,12.94-.84,3.98-2.26,7.85-3.51,11.74-2.19,6.8-3.63,13.75-4.68,20.82-1,6.69-2.26,13.35-3.42,20.02-.16.92-.39,1.83-.67,2.72-.7,2.17-2.49,2.69-4.33,1.27-.44-.34-.81-.75-1.34-1.25-.39.7-.65,1.19-.93,1.68-.68,1.19-1.7,1.91-3.05,2.13-.98.16-1.56-.24-3.22-2.11-.6.66-1.15,1.35-1.78,1.95-.51.49-1.52.33-1.82-.3-.46-.93-.82-1.91-1.31-3.08-.78.58-1.48,1.14-2.22,1.65-1.44.99-2.76.66-3.38-.96-.41-1.08-.67-2.25-.76-3.4-.1-1.27.04-2.57.12-3.85.08-1.17.26-2.32.32-3.49.32-7,.62-14.01.93-21.01.2-4.32.43-8.64.61-12.96.05-1.15-.03-2.3-.05-3.73-.88.19-1.62.16-2.1.5-.95.67-1.78,1.5-2.6,2.33-.99.99-1.88,2.08-2.88,3.07-2.16,2.12-5.7,2.62-8.41,1.25-1.02-.52-1.48-1.73-.82-2.65.67-.93,1.46-1.87,2.41-2.48,2.2-1.42,3.93-3.3,5.63-5.23,3.93-4.48,7.89-8.94,11.74-13.49,1.82-2.14,3.9-3.63,6.75-3.98,4.05-.5,6.21-2.72,7.31-6.79,3.55-13.07,7.3-26.08,10.01-39.36.63-3.1,1.03-6.22,1.01-9.39-.03-3.97.07-7.95-.03-11.92-.15-6.39.92-12.52,3.24-18.5,1.7-4.37,3.59-8.63,6.09-12.6.98-1.55,1.37-3.09,1.3-4.93-.32-8.41-.45-16.82-.78-25.23-.31-7.82-.74-15.64-2.7-23.27-.52-2.03-1.12-4.05-1.88-6.01-.94-2.42-1.45-4.91-1.69-7.48-.76-7.88-.19-15.63,2.14-23.23,1.83-5.98,4.59-11.48,8.58-16.33,1.66-2.01,3.58-3.64,5.91-4.85,5.91-3.09,12.13-5.46,18.24-8.1,5.14-2.23,10.23-4.57,15.24-7.06,3.23-1.61,6.28-3.59,9.41-5.39,5.49-3.16,8.57-7.81,8.69-14.23.05-2.33.04-4.67-.05-7.01-.21-5.25-.4-10.51-.81-15.74-.16-2.07-.79-4.12-1.33-6.14-.57-2.12-1.81-3.83-3.84-4.76-2.81-1.28-4.19-3.57-4.95-6.41-1.13-4.23-1.53-8.51-.68-12.83.55-2.81.8-3.03,3.49-4.43-.2-1.67-.37-3.4-.61-5.12-1.09-7.86.09-15.4,3.48-22.53,5.14-10.8,13.9-17.02,25.5-19.35,2.28-.46,4.63-.59,6.95-.76,3.95-.29,7.63.78,11.15,2.48,2.86,1.38,5.48,3.13,7.9,5.17,1.97,1.65,3.81,3.45,5.79,5.09,4.31,3.55,6.26,8.29,7.25,13.61.92,4.97.88,10,.95,15.02.03,2.1-.04,4.21-.02,6.31,0,.66.19,1.32.32,2.2,1.06-.55,1.85-.96,2.54-1.31,1.1.46,1.62,1.2,1.83,2.16,1.02,4.63,1.33,9.25-.6,13.74-1.11,2.59-2.64,4.95-4.41,7.13-1.95,2.41-2.43,2.7-5.53,3.5-.18.71-.42,1.49-.56,2.28-.91,5.05-1.83,10.11-2.69,15.17-.63,3.69-1.24,7.39-1,11.15.11,1.74.31,3.5.72,5.19.89,3.7,2.95,6.56,6.45,8.28.83.41,1.66.87,2.39,1.44,4.73,3.69,9.96,6.52,15.36,9.07,4.96,2.35,9.99,4.54,14.91,6.98,4.07,2.02,8.08,4.21,12.01,6.5,3.24,1.89,6.14,4.27,8.74,6.99,5.74,5.99,8.26,13.14,7.74,21.41-.23,3.61-.27,7.23-.41,10.85-.23,6.19-.39,12.38-1.9,18.44-.23.91-.41,1.84-.77,2.69-1.09,2.52-1.33,5.15-1.38,7.87-.2,10.87-.44,21.73-.78,32.6-.12,3.82.54,7.43,2.02,10.92,1.55,3.65,3.12,7.3,4.65,10.96,1.58,3.79,2.75,7.69,2.86,11.85.05,1.98.08,3.97.3,5.93,1.17,10.68,2.24,21.37,3.66,32.02,1.16,8.69,3.03,17.26,6.31,25.43,1.08,2.7,2.43,5.31,3.7,7.93.46.94,1.06,1.74,2.02,2.34,8.58,5.36,16.03,12.09,23.21,19.15,1.25,1.23,2.41,2.55,3.56,3.87.61.7,1.17,1.46,1.66,2.26,1.38,2.25.76,3.39-1.93,3.75-2.21.3-4.21-.22-5.93-1.58-1.56-1.23-2.99-2.6-4.5-3.9-.95-.81-1.73-1.9-3.32-2.15-.34.9-.85,1.72-.94,2.58-.26,2.55-.57,5.13-.48,7.68.23,6.19,1.21,12.31,2.11,18.44.83,5.66,1.55,11.34,2.3,17.01.06.46.07.93.05,1.4-.09,1.75-1.45,2.39-2.95,1.4-1.31-.87-2.22-2.05-2.75-3.53-.18-.5-.38-1-.79-2.09-.46,1.58-.71,2.57-1.05,3.53-.42,1.19-1.5,1.45-2.5.6-.62-.53-1.16-1.15-1.7-1.76-.52-.6-1-1.23-1.73-2.13-.26.67-.45,1.04-.55,1.42-.2.79-.34,1.6-.53,2.39-.23.93-.53,1.91-1.65,1.99-1.12.08-1.56-.91-1.99-1.73-.43-.83-.71-1.73-1.12-2.57-.18-.37-.51-.67-1.05-1.36-.26,1.43-.38,2.43-.63,3.4-.19.75-.84,1.23-1.55,1.2-.48-.02-1.12-.44-1.37-.87-.65-1.1-1.14-2.3-1.65-3.48-3.8-8.71-6.36-17.81-8.27-27.09-1.81-8.8-3.41-17.65-4.95-26.5-.67-3.83-1.77-7.42-3.63-10.87-5.6-10.38-11.08-20.83-15.66-31.72-3.72-8.85-6.74-17.91-8.44-27.39-1.08-6.02-1.37-12.07-1.03-18.15.14-2.53-.29-4.8-1.39-7.08-1.89-3.89-3.52-7.89-4.52-12.12-.15-.66-.46-1.28-.9-2.45-.47,1.23-.82,1.92-.99,2.64-1.68,7.22-2.37,14.55-1.58,21.92.52,4.87,1.45,9.7,2.37,14.51,1.23,6.42,2.62,12.81,3.96,19.2,1.08,5.16,1.37,10.42,1.88,15.64.73,7.44,1.34,14.89,1.96,22.34.3,3.61.57,7.22.77,10.84.77,13.54,1.22,27.1.7,40.65-.62,15.9-2.41,31.67-6.37,47.13-.4,1.57-.62,3.2-.82,4.82-.92,7.68-2.97,15.11-4.93,22.56-1.72,6.54-3.31,13.12-4.91,19.7-.65,2.64-.67,5.24.16,7.93,1.15,3.71,1.14,7.62,1.03,11.47-.12,4.2-.42,8.4-.63,12.6-.09,1.75-.11,3.5-.21,5.25-.16,2.84.31,5.52,1.28,8.22,1.66,4.63,2.49,9.47,2.99,14.37,1.16,11.44.8,22.88-.1,34.31-.4,5.13-1.75,10.12-3.2,15.05-3.41,11.65-7,23.25-10.42,34.9-1.71,5.82-3.26,11.69-4.82,17.56-.39,1.46-.66,2.97-.79,4.48-.65,7.56-1.25,15.13-1.81,22.7-.09,1.26-.25,2.57.49,3.96.48-.06,1.08,0,1.55-.22,1.06-.48,2.03-1.17,3.09-1.64.84-.37,1.76-.68,2.66-.76,2.46-.22,4.06,1.17,4.2,3.59.16,2.84-.59,5.19-3.09,6.98-4.47,3.2-8.85,6.5-13.75,9.04-2.5,1.29-5.07,2.33-7.88,2.8-4.11.69-7.13-1.46-8.14-4.47-.55-1.65-1.04-3.36-1.19-5.08-.46-5.14-.24-10.27.38-15.39.57-4.75,1.12-9.51,1.73-14.26.52-4.05,1.15-8.09,1.69-12.14.17-1.27.3-2.56.32-3.84.19-8.88.19-17.75-.43-26.63-.74-10.6-1.14-21.23-1.62-31.85-.31-6.79.37-13.53,1.11-20.27.64-5.8,1.18-11.63,1.43-17.46.15-3.6-.25-7.23-.59-10.83-.15-1.6-.67-3.2-1.22-4.73-3.1-8.62-4.93-17.5-5.81-26.62-.48-5.02-.62-10.03-.44-15.05.12-3.5.58-6.98.89-10.47.12-1.39.35-2.78.37-4.18.19-12.63-.31-25.23-1.17-37.83-.36-5.24-.58-10.5-.91-15.75-.35-5.48-.83-10.95-1.13-16.43-.4-7.23-.69-14.47-1.04-21.71-.09-1.96.02-3.94-.69-5.87ZM387.09,201.31c.17.04.33.08.5.11.19,1.49.45,2.98.56,4.48.72,10.02,1.47,20.03,2.89,29.98,1.12,7.88,2.69,15.64,5.44,23.14,2.18,5.95,3.49,12.12,4.29,18.38,1.29,10.14.97,20.3-.09,30.43-1.12,10.69-3.05,21.26-4.98,31.83-2.31,12.63-4.59,25.26-5.56,38.1-.52,6.89-.67,13.77-.68,20.66-.02,9.35.31,18.69,1.54,27.98.8,6.02,1.55,12.04,2.55,18.03,1.55,9.34,3.94,18.48,6.57,27.58,4.14,14.34,5.66,29.11,6.24,43.95.45,11.32.38,22.67.45,34,.02,2.68-.33,5.36-.56,8.03-.59,6.86-1.45,13.72-1.74,20.59-.32,7.46-.13,14.95-.18,22.43-.02,3.41.52,6.75,1.11,10.08,1.51,8.52,3.81,16.84,6.33,25.11,3.02,9.94,6.09,19.86,9.05,29.82,2,6.72,3.41,13.59,4.39,20.53.73,5.19.8,10.48,2.14,15.59.03.11.03.23.03.35.07,1.27-.84,2.04-2.02,1.63-.88-.3-1.69-.82-2.58-1.08-2.35-.69-4.63-.74-6.55,1.13-1.44,1.41-1.73,3.03-.7,4.76.59.99,1.32,1.96,2.18,2.7,2.47,2.14,5.03,4.18,7.58,6.23,1.67,1.34,3.61,2.19,5.7,2.53,2.88.46,5.78.8,8.68,1.12.8.09,1.64.01,2.44-.1,1.44-.2,2.35-1.06,2.57-2.48.61-4.03,1.53-8.01,1.47-12.15-.08-5.75-.96-11.4-1.78-17.06-.9-6.25-1.77-12.49-1.65-18.83.22-12.03.34-24.07.73-36.1.18-5.6.61-11.22,1.46-16.75.85-5.5.67-10.96.26-16.43-.66-8.73-1.67-17.44-2.36-26.17-.36-4.54-.4-9.09.21-13.65.65-4.86,1.14-9.74,1.62-14.62.64-6.51,1.23-13.02,1.8-19.53.6-6.78.34-13.55-.59-20.28-.33-2.35-.41-4.64-.17-6.97.13-1.28.25-2.56.34-3.84.55-8.16,1.07-16.32,1.63-24.48.23-3.38.51-6.75.78-10.13.38-4.77.79-9.55,1.14-14.32.33-4.66.6-9.33.89-13.99.61-9.56,1.38-19.11,1.81-28.68.47-10.62.62-21.26.93-31.89.03-1.16.13-2.33.27-3.49.05-.43.34-.83.79-1.84.08,1.18.13,1.63.14,2.09.28,16.24.38,32.49,1.2,48.71.27,5.37.59,10.73.95,16.09.56,8.51,1.3,17.01,1.73,25.52.53,10.38.8,20.78,1.24,31.17.22,5.03.04,10.05-.49,15.05-.17,1.63-.51,3.24-.56,4.87-.23,7.24-.39,14.47.48,21.7.92,7.69,2.42,15.22,5.06,22.49,1.37,3.78,2.04,7.64,2.19,11.64.27,7.26-.33,14.47-1.15,21.68-.45,3.94-.78,7.9-1.1,11.86-.6,7.48.07,14.95.25,22.42.1,4.2.46,8.4.77,12.59.73,10.03,1.37,20.06,1.02,30.11-.12,3.61-.42,7.24-.87,10.82-.92,7.3-2.1,14.56-2.99,21.86-.47,3.82-.63,7.68-.77,11.53-.1,2.81.23,5.61,1.09,8.3,1.38,4.32,4.26,5.89,8.67,4.84,2.52-.6,4.87-1.62,7.13-2.85,4.74-2.56,9.07-5.74,13.4-8.94,1.82-1.34,2.35-3.15,2.49-5.16.17-2.58-1.48-4.04-3.97-3.42-1.33.33-2.55,1.11-3.82,1.68-1.03.46-1.8,1.54-3.11,1.35-.98-.71-1.11-1.78-1.2-2.81-.09-1.04-.09-2.11-.02-3.15.47-6.29.95-12.58,1.48-18.86.45-5.37,1.64-10.6,3.19-15.76,1.81-6.04,3.58-12.09,5.42-18.12,3.17-10.38,6.53-20.71,9.09-31.27,1.07-4.43,2.15-8.87,2.29-13.44.26-8.64.67-17.28.19-25.93-.38-6.8-1.37-13.48-3.65-19.91-.84-2.37-1.18-4.76-1.06-7.22.25-4.9.53-9.8.87-14.7.36-5.28.18-10.53-1.24-15.65-.59-2.11-.61-4.1-.23-6.21,1.08-5.98,2.64-11.85,4.24-17.7,2.16-7.88,4.45-15.73,5.6-23.85.34-2.42.54-4.89,1.15-7.25,3.54-13.75,5.39-27.75,6.05-41.88.76-16.35.39-32.71-.7-49.05-.23-3.5-.49-6.99-.8-10.48-.57-6.51-1.27-13.02-1.77-19.54-.57-7.58-1.62-15.08-3.25-22.51-1.87-8.55-3.92-17.06-4.84-25.8-.62-5.86-.59-11.68.59-17.44,2.08-10.18,4.26-20.33,6.47-30.48,3.08-14.14,6.49-28.22,8.15-42.63.06-.52.04-1.18.96-1.38,0,.73.02,1.43,0,2.12-.25,7.85-1.61,15.56-3.28,23.21-2.47,11.29-5.05,22.55-7.76,33.79-.91,3.77-.8,7.36.22,11.04,1.19,4.3,2.96,8.36,4.86,12.37.73,1.53,1.06,3.04.91,4.73-.19,2.09-.37,4.2-.32,6.3.18,7.03,1.13,13.95,2.92,20.76,2.53,9.64,6.13,18.88,10.49,27.81,4.2,8.6,8.65,17.09,13.03,25.6.81,1.57,1.49,3.17,1.8,4.9.79,4.37,1.53,8.74,2.31,13.11,1.59,8.97,3.25,17.92,5.61,26.72,1.69,6.32,3.74,12.53,6.43,18.5.41.91.59,2.06,1.96,2.56.27-.44.75-.87.8-1.34.09-.91.07-1.88-.12-2.78-.66-3.08-1.41-6.14-2.14-9.2-.74-3.06-1.52-6.12-2.23-9.18-.12-.53-.13-1.18.95-1.29.45,1.25.98,2.54,1.37,3.86,1.19,4.03,2.29,8.09,3.51,12.11.71,2.34,1.53,4.65,2.38,6.95.27.72.55,1.58,1.68,1.72.84-.49,1.09-1.41,1.09-2.3-.01-1.86.06-3.77-.34-5.57-.75-3.41-1.8-6.76-2.71-10.14-.58-2.14-1.15-4.28-1.65-6.44-.11-.48-.3-1.19.66-1.4,1.38,1.36,1.76,3.24,2.26,5,.86,3.03,1.45,6.13,2.27,9.18.58,2.13,1.22,4.27,2.06,6.31.7,1.7,1.69,3.31,3.73,4.19.29-.6.72-1.09.72-1.58,0-1.86-.04-3.74-.27-5.59-.73-5.8-1.94-11.51-3.5-17.14-.11-.39-.4-.87.52-1.09.24.73.53,1.46.73,2.22.55,2.03,1.04,4.07,1.59,6.1,1.32,4.84,2.68,9.68,3.96,14.53.37,1.41.93,2.66,2.18,3.46.42.27,1.02.27,1.55.39.6-1.56.36-2.98.17-4.34-.97-7.06-2.01-14.1-3.02-21.15-.79-5.56-1.39-11.14-1.02-16.76.11-1.73.49-3.46.88-5.16.14-.61.65-1.14,1.09-1.85.89.53,1.64.86,2.23,1.36,1.25,1.05,2.39,2.23,3.64,3.29,1.16.98,2.33,1.97,3.62,2.74,1.89,1.13,3.89,1.55,6,.03-.08-.43-.04-.94-.27-1.29-.7-1.07-1.41-2.16-2.27-3.1-7.19-7.9-15.26-14.79-23.96-20.97-2.8-1.13-4.36-3.39-5.5-6.02-1.02-2.36-2.12-4.68-3.04-7.08-2.73-7.12-4.39-14.53-5.52-22.04-.93-6.23-1.7-12.5-2.34-18.77-.76-7.43-2.11-14.8-1.98-22.31.01-.81-.14-1.63-.27-2.43-.55-3.24-1.63-6.32-2.92-9.34-1.28-3.01-2.57-6.01-3.89-9.01-2.02-4.58-2.8-9.32-2.54-14.34.34-6.65.39-13.32.59-19.97.14-4.55.26-9.11.5-13.66.07-1.37.41-2.76.84-4.07,1.11-3.34,1.78-6.75,2.23-10.24.67-5.12.59-10.26.64-15.4.02-1.63.11-3.27.33-4.88,1.16-8.63-1.06-16.2-6.98-22.63-2.55-2.77-5.44-5.17-8.68-7.05-4.23-2.47-8.54-4.82-12.93-7-4.91-2.45-9.95-4.63-14.9-6.98-5.18-2.46-10.18-5.24-14.73-8.76-.64-.5-1.36-.91-2.09-1.27-4.47-2.21-6.63-5.95-7.51-10.74-.84-4.59-.27-9.1.48-13.58,1.37-8.17,3.18-16.27,3.88-24.55.02-.21.32-.39.66-.79.16,1.69.26,3.06.43,4.43.07.58.89.95,1.38.64.68-.43,1.41-.87,1.91-1.48,1.18-1.44,2.26-2.97,3.33-4.5,3.41-4.83,3.75-10.19,2.65-15.77-.15-.76-.33-1.62-1.26-1.88-1.82.35-1.68,2.62-3.42,3.58-.08-1.38-.19-2.39-.19-3.41-.03-4.56.06-9.12-.06-13.67-.12-4.56-.52-9.09-1.86-13.49-1.04-3.42-2.66-6.45-5.42-8.82-1.86-1.6-3.61-3.32-5.48-4.92-2.49-2.13-5.16-4.01-8.08-5.53-3.7-1.93-7.6-3.01-11.8-2.64-2.44.21-4.91.34-7.29.87-11.18,2.5-19.44,8.77-24.28,19.29-2.13,4.62-3.18,9.49-3.39,14.57-.24,5.67.66,11.17,2.3,16.57.19.63.37,1.26.55,1.9-1.79-1.21-1.7-3.78-3.95-4.65-1.12.74-1.41,1.88-1.57,3.01-.62,4.45-.4,8.85.99,13.16.67,2.09,1.83,3.78,3.88,4.73,2.77,1.28,4.19,3.57,4.96,6.42.89,3.29,1.36,6.62,1.43,10.03.06,2.8.3,5.6.38,8.4.1,3.39.26,6.78.12,10.16-.24,5.71-2.69,10.33-7.47,13.59-1.25.85-2.6,1.56-3.92,2.31-.71.4-1.5.68-2.17,1.13-6.62,4.49-13.96,7.51-21.29,10.57-5.27,2.21-10.46,4.61-15.71,6.88-3.78,1.63-6.6,4.33-8.89,7.67-7.45,10.88-10.04,22.98-8.85,35.97.21,2.31.54,4.7,1.38,6.83,2.83,7.16,4.01,14.64,4.46,22.23.46,7.81.55,15.65.79,23.47.08,2.45-.21,4.97.26,7.35.78,3.96-.26,7.21-2.44,10.49-2.72,4.1-4.24,8.81-5.85,13.45-1.01,2.9-1.75,5.81-1.84,8.87-.15,5.02-.31,10.04-.34,15.06-.03,5.15-.21,10.27-1.51,15.3-2.57,9.94-5.04,19.91-7.6,29.86-.76,2.94-1.7,5.83-2.5,8.76-.72,2.64-2.44,4.18-5.02,4.85-1.01.27-2.03.54-3.06.73-2.05.37-3.64,1.41-4.99,3-3.03,3.56-6.11,7.08-9.21,10.57-2.94,3.31-5.63,6.88-9.46,9.3-.85.54-1.71,1.29-1.53,2.55,2.87,1.75,5.77,1.58,7.93-.54,1.08-1.06,2.04-2.25,3.12-3.32.82-.82,1.69-1.62,2.63-2.3,1.01-.73,2.12-.86,3.4.03,0,1.23.04,2.5,0,3.76-.2,5.02-.4,10.04-.66,15.06-.33,6.42-.74,12.83-1.09,19.25-.13,2.33-.28,4.67-.24,7,.02,1.13.36,2.29.72,3.37.3.88,1.26,1.04,2.02.52,1.03-.71,1.59-1.73,1.76-2.92.34-2.31.64-4.62.86-6.94.55-5.69,1.03-11.4,1.58-17.09.04-.41.39-.79.59-1.18.27,1.06.23,1.99.15,2.91-.39,4.54-.87,9.07-1.15,13.61-.19,3.03-.13,6.07-.11,9.11,0,1.39.28,2.75,1.25,4.2.55-.59,1.19-.99,1.36-1.54.7-2.22,1.39-4.46,1.85-6.74,1.14-5.73,1.85-11.53,2.21-17.36.05-.86-.16-1.84.79-2.55.92,1.19.75,2.43.59,3.72-.83,6.72-1.62,13.45-2.4,20.17-.11.93-.16,1.87-.14,2.8.02,1.16,1.2,1.89,2.23,1.31.67-.38,1.33-.98,1.71-1.64.39-.68.49-1.54.63-2.34,1.21-6.9,2.4-13.8,3.6-20.7.07-.41.14-.91.95-.67-.03.55,0,1.12-.09,1.68-.57,3.93-1.2,7.85-1.74,11.78-.27,1.97-.47,3.95-.51,5.93-.03,1.14.22,2.32.53,3.43.19.68.88,1.22,1.63,1.05.49-.11,1.06-.56,1.3-1.01.37-.71.57-1.53.71-2.33,1.17-6.55,2.4-13.09,3.42-19.66,1.13-7.28,2.46-14.49,4.74-21.52,1.48-4.55,2.9-9.13,4.06-13.77.83-3.33,1.99-6.45,3.68-9.42.86-1.52,1.71-3.06,2.45-4.65,1.18-2.54,2.54-5.04,3.31-7.7,1.2-4.2,2.93-8.14,5.12-11.87,3.93-6.68,7-13.72,9.35-21.08,1.14-3.56,2.4-7.08,3.41-10.67.53-1.89.88-3.89.91-5.85.1-5.84.12-11.68.9-17.49.7-5.22,1.59-10.39,3.8-15.23,1.39-3.06,1.69-6.27,1.4-9.59-.36-4.1-1.29-8.09-2.58-11.96-2.35-7.04-3.23-14.33-4.05-21.64-.6-5.34-1.2-10.68-1.64-16.03-.38-4.65-.54-9.33-.77-13.99-.02-.32.15-.66.23-.99Z"/>
          <path d="M94.53,265.76c-.2,1.37-.44,2.73-.6,4.1-.66,5.61-2.18,10.99-4.25,16.22-.74,1.88-1.07,3.77-1.1,5.79-.08,5.84-.2,11.69-.5,17.52-.11,2.19-.65,4.38-1.19,6.52-1.9,7.5-4.96,14.58-8.18,21.59-1.32,2.86-2.69,5.71-4.07,8.54-2.41,4.93-4.68,9.93-6.56,15.09-1.53,4.18-3.39,8.19-5.94,11.88-.77,1.12-1.24,2.52-1.55,3.86-1.43,6.26-2.78,12.53-4.12,18.81-2.35,11.08-4.66,22.16-7.02,33.24-.36,1.71-.91,3.38-1.39,5.06-.16.56-.36,1.11-.57,1.65-.34.85-.54,2.05-1.64,2.03-1.33-.02-1.39-1.39-1.65-2.35-.34-1.23-.49-2.52-.75-3.77-.08-.42-.23-.82-.36-1.26-1.05.43-1.1,1.3-1.36,2.05-.56,1.66-1.07,3.34-1.72,4.96-.39.96-.92,1.9-1.54,2.73-.29.39-1.01.76-1.44.67-.45-.09-.97-.68-1.13-1.16-.32-.94-.42-1.97-.6-2.93-.98.05-1.04.69-1.27,1.21-.53,1.16-1.01,2.36-1.69,3.42-.56.87-1.71.87-2.43.06-.53-.59-.97-1.3-1.26-2.04-.25-.63-.23-1.36-.31-1.98-.33-.13-.62-.33-.72-.26-2.31,1.56-3.11.76-3.85-1.4-.37-1.09-.65-2.28-.63-3.42.06-4.43.17-8.87.43-13.3.47-8.04,1.93-16.02,1.72-24.11-.05-1.85.14-3.76-1.2-5.57-.47.24-1.04.37-1.4.73-1.31,1.33-2.46,2.83-3.85,4.08-1.29,1.16-2.75,2.14-4.2,3.09-1.24.81-2.69.74-4.09.55-1.26-.17-2.1-.88-2.5-2.14-.34-1.06.2-1.8.79-2.53.22-.27.49-.5.76-.72,5.1-4.16,9.25-9.23,13.53-14.17,1.91-2.21,3.79-4.46,5.82-6.55,1.89-1.94,3.98-3.58,7.02-3.31,1.21.11,2.27-.7,2.93-1.69,1.09-1.65,2.19-3.32,3-5.12,1.94-4.26,3.17-8.78,4.31-13.31,1.22-4.87,2.34-9.76,3.51-14.64.27-1.14.47-2.3.89-3.39,1.53-4,1.88-8.17,2-12.39.17-6.19.42-12.38.49-18.57.08-7.38,2.12-14.28,4.79-21.05,1.16-2.93,2.46-5.81,3.53-8.77,1.62-4.47,2.11-9.01,1.24-13.78-.61-3.31-.7-6.74-.86-10.12-.33-6.89-.43-13.78-.86-20.66-.34-5.36-.98-10.71-3.13-15.73-.23-.53-.34-1.12-.44-1.69-.86-4.84-1.42-9.69-.96-14.63.44-4.67,1.09-9.27,2.52-13.75,1.58-4.94,3.79-9.56,7.03-13.63,3.71-4.67,8.25-8.11,13.99-10.11,14.18-4.94,27.5-11.68,39.97-20.07.48-.33.95-.7,1.46-.98,2.03-1.12,2.85-2.69,2.8-5.13-.17-7.24-.02-14.49-.09-21.74-.02-1.74-.31-3.48-.58-5.2-.53-3.45-1.12-6.9-1.68-10.28-1.3-.5-2.59-.74-3.57-1.43-1.02-.72-1.81-1.81-2.57-2.84-.84-1.12-1.54-2.34-2.28-3.53-.87-1.41-1.42-2.92-1.49-4.61-.14-3.5-.37-7-.5-10.5-.04-.93.02-1.88.2-2.79.4-2.04,1.2-2.53,3.48-2.29.33.04.67,0,1.06,0,.49-1.66.04-3.26-.12-4.88-.42-4.31-.64-8.63.36-12.9.16-.68.32-1.37.57-2.02,4.42-11.2,11.67-19.54,23.45-23.42,4.97-1.63,10.02-2.27,15.19-1.83,1.6.13,3.24.57,4.72,1.2,4.54,1.91,8.77,4.38,12.61,7.5,6.85,5.57,10.78,12.74,12.01,21.48.46,3.26.6,6.51.55,9.78-.02,1.63,0,3.26,0,4.85.22.16.42.42.58.4,2.44-.36,2.75-.28,3.14,1.88.3,1.71.51,3.5.32,5.21-.36,3.24-.96,6.46-1.59,9.66-.48,2.43-1.63,4.62-3.06,6.64-1.97,2.79-2.64,3.15-6.15,3.39-.08.65-.23,1.33-.23,2,.05,4.71-.81,9.29-1.71,13.88-1.04,5.27-2.12,10.55-1.81,15.97.1,1.74.33,3.49.74,5.18.86,3.6,2.95,6.3,6.29,7.99.83.42,1.68.85,2.41,1.42,4.71,3.71,9.95,6.54,15.34,9.1,5.48,2.61,11.05,5.05,16.48,7.74,3.76,1.87,7.41,3.97,11.02,6.11,2.92,1.73,5.54,3.9,7.92,6.33,5.52,5.62,8.35,12.32,8.07,20.23-.27,7.47-.52,14.94-.97,22.41-.25,4.2-1,8.35-2.56,12.3-.52,1.32-.82,2.65-.85,4.08-.25,11.92-.49,23.84-.84,35.75-.1,3.46.5,6.75,1.79,9.92,1.14,2.81,2.42,5.57,3.57,8.38.97,2.37,1.9,4.77,2.77,7.18.92,2.55,1.23,5.2,1.33,7.91.14,3.85.24,7.71.69,11.53.99,8.35,2.03,16.69,3.34,24.99,1.67,10.62,4.18,21.06,7.64,31.26.66,1.96,1.67,3.38,3.43,4.6,3.46,2.38,6.79,4.98,9.96,7.73,4.59,3.98,8.98,8.19,13.46,12.3,1.55,1.42,3.12,2.82,4.63,4.29.74.73,1.47,1.52,2,2.41.66,1.12.11,2.33-1.1,2.87-1.24.55-2.52.44-3.78.16-3.66-.81-6.77-2.51-8.94-5.68-.13-.19-.24-.4-.39-.58-1.27-1.61-2.74-1.46-3.36.44-.35,1.09-.47,2.28-.52,3.44-.22,4.93.42,9.79,1.1,14.66.99,7.05,2.02,14.1,2.96,21.16.2,1.5.19,3.04.12,4.55-.04.91-.3,1.84-.64,2.69-.4,1.01-1.51,1.16-2.27.33-.62-.68-1.15-1.43-1.91-2.38-.64,1.08-1.19,2.01-1.86,3.13-.69-.41-1.41-.61-1.78-1.09-.91-1.2-1.68-2.51-2.46-3.8-.46-.77-.83-1.6-1.45-2.81-.6,1.4-.11,2.41-.24,3.36-.16,1.14-.25,2.3-.51,3.42-.18.75-1.17,1-1.67.44-.62-.68-1.24-1.41-1.67-2.21-.77-1.44-1.39-2.96-2.1-4.43-.24-.5-.56-.96-1-1.72,0,1.64.04,2.9-.02,4.15-.03.69-.14,1.4-.36,2.05-.23.7-.78,1.26-1.57,1.14-.51-.08-1.13-.38-1.41-.79-.53-.75-.88-1.64-1.26-2.49-4.12-9.21-6.97-18.83-9.04-28.68-2.02-9.59-3.74-19.25-5.65-28.87-.29-1.47-.69-2.99-1.41-4.28-8.44-15.13-15.23-31.02-21.73-47.04-.97-2.38-1.87-4.79-2.87-7.15-.83-1.97-1.23-4-1.31-6.13-.21-5.49-.45-10.98-.72-16.46-.21-4.21-.7-8.4-1.95-12.43-.69-2.22-1.56-4.41-2.65-6.46-.8-1.51-1.24-2.99-1.25-4.65-.01-1.63,0-3.26,0-4.92-1.18-.16-1.18.71-1.31,1.26-2.06,8.58-2.8,17.28-2.03,26.08.53,6.05,1.03,12.1,1.81,18.12.91,7.06,2.05,14.09,3.17,21.12,1.68,10.49,3.63,20.94,5.1,31.46,1.16,8.33,1.51,16.74,1.6,25.17.1,9.36-.26,18.7-.87,28.03-1.01,15.51-2.94,30.91-5.89,46.19-3.1,16.05-6.8,31.97-10.34,47.92-.6,2.68-.78,5.17.03,7.88.69,2.31.9,4.84.91,7.27.01,4.55-.25,9.1-.45,13.65-.22,4.9-.59,9.81.4,14.68.4,1.94.85,3.88,1.53,5.74,3.21,8.75,4.84,17.76,4.99,27.08.18,11.32-1.62,22.36-4.76,33.17-3.06,10.53-6.51,20.96-9.79,31.43-2.52,8.02-4.85,16.1-6.31,24.39-1.13,6.45-1.74,12.95-1.7,19.52.02,2.89.96,5.24,2.86,7.29,1.43,1.55,2.91,3.04,4.35,4.57,1.12,1.19,2.25,2.38,3.28,3.65.66.81,1.24,1.71,1.69,2.65.96,2.02.61,3.57-1.08,5.01-2.06,1.75-4.58,2.32-7.18,2.38-3.04.07-6.08.04-9.11-.16-2.72-.17-5.22-.1-7.79,1.23-2.89,1.5-8.1.73-11.13-2.89-.79-.94-1.17-1.99-.98-3.24,1.33-8.6.86-17.26.89-25.9,0-1.31.2-2.52.73-3.73,2.87-6.6,4.33-13.52,5-20.67.67-7.13.64-14.23.03-21.35-.97-11.41-2.04-22.81-2.77-34.23-.6-9.34-.34-18.68,1.72-27.89.95-4.25.93-8.57.54-12.91-.69-7.59-2.35-14.98-4.28-22.33-.95-3.61-1.87-7.23-2.84-10.84-.64-2.38-.89-4.79-.9-7.27-.08-10.75-.18-21.5-.44-32.25-.39-16.12-.8-32.24-.52-48.38.15-8.76.16-17.53.1-26.3-.04-4.79-.43-9.57-1.35-14.29-.27-1.36-.76-2.69-1.33-3.95-.53-1.16-1.78-1.14-2.46-.02-.35.58-.7,1.26-.77,1.92-.19,1.85-.31,3.72-.32,5.58-.02,2.8.16,5.6.11,8.4-.07,3.97-.19,7.95-.43,11.91-.33,5.48-.74,10.95-1.2,16.42-.5,5.94-1.02,11.87-1.66,17.79-1.45,13.42-.7,26.85-.2,40.27.41,11.11.35,22.21-1.3,33.23-.53,3.57-1.44,7.09-2.42,10.57-1.28,4.52-2.03,9.09-2.44,13.76-.71,8.18-.52,16.33-.09,24.51.43,8.05.63,16.11.82,24.17.15,6.32-.25,12.61-1.22,18.86-.12.81-.19,1.63-.2,2.44-.16,7.59-.42,15.19-.41,22.78,0,5.84.25,11.68.61,17.51.16,2.54.83,5.06,1.35,7.57.19.9.41,1.94.98,2.6,1.89,2.17,1.71,4.7,1.66,7.27-.13,7.84.48,15.64,1.19,23.44.33,3.61-1.26,5.83-4.88,6.38-1.84.28-3.73.35-5.59.33-2.45-.03-4.91-.19-7.35-.4-2.22-.19-4.41-.27-6.63.07-2.97.46-5.83-.33-8.52-1.51-3.07-1.35-3.85-3.83-1.94-6.54,1.26-1.79,2.8-3.52,4.58-4.78,3.9-2.75,5.48-6.56,5.78-11.07.16-2.33.16-4.67.11-7-.08-4.09-.2-8.18-.43-12.26-.09-1.49-.37-3.02-.85-4.43-2.99-8.85-6.06-17.67-9.12-26.49-3.4-9.82-6.69-19.67-9-29.82-1.25-5.48-2.17-10.97-1.95-16.64.21-5.49.12-10.98.16-16.48.06-7.17,1.2-14.17,3.14-21.07,1.01-3.59,1.92-7.22,2.81-10.84.62-2.53.57-5.09.19-7.66-.27-1.84-.55-3.71-.53-5.57.06-6.07.26-12.15.41-18.22.01-.58.07-1.17.11-1.75.38-5.4-.21-10.63-1.73-15.9-3.4-11.77-6.45-23.65-9.47-35.52-.92-3.61-1.4-7.34-1.88-11.04-.97-7.53-1.82-15.07-2.67-22.61-.34-3.02-.56-6.05-.78-9.08-1.03-13.88-1.25-27.79-.68-41.7.39-9.57,1.43-19.09,3.14-28.53,2.18-12.06,4.35-24.13,6.25-36.24,1.6-10.16,2.57-20.39,2.39-30.71-.12-6.8-.9-13.51-2.19-20.17-.2-1.01-.56-1.99-.85-2.98-.21-.01-.41-.03-.62-.04ZM37.38,439.91c.73-1.1,1.38-1.78,1.69-2.59.83-2.18,1.61-4.39,2.25-6.63,1.67-5.85,2.65-11.84,3.58-17.85.04-.25.3-.47.66-1.01.07.7.17,1.03.13,1.34-.49,4.41-1.14,8.81-1.44,13.23-.17,2.42.19,4.89.42,7.33.08.85.29,1.79,1.35,2.47.33-.54.72-.98.89-1.49.54-1.66,1.11-3.33,1.48-5.04,2.36-10.95,4.67-21.92,7-32.87,1.41-6.62,2.78-13.25,4.28-19.85.36-1.56.91-3.2,1.81-4.5,2.53-3.7,4.25-7.76,5.93-11.88,1.9-4.65,3.91-9.24,5.97-13.82,2.02-4.47,4.21-8.86,6.23-13.33,2.46-5.43,4.6-10.98,6.23-16.72,1.06-3.73,1.73-7.49,1.71-11.39-.03-4.67.13-9.35.13-14.02,0-1.67.24-3.24.93-4.76.33-.74.63-1.51.89-2.28,2.27-6.54,4.07-13.16,3.89-20.18-.04-1.54-.26-2.99-.81-4.44-1.65-4.38-2.86-8.89-3.61-13.51-.82-5.07-1.42-10.18-2.34-15.23-1.75-9.59-1.68-19.3-2.3-28.97-.03-.44.03-.96.76-.82.71,7.43,1.46,14.87,2.12,22.31.67,7.57,1.73,15.08,3.03,22.56.42,2.4.92,4.85,1.84,7.09,5.28,12.87,7.13,26.34,6.95,40.12-.1,8.18-.77,16.35-2.07,24.43-1.82,11.29-3.83,22.56-5.83,33.82-1.7,9.55-3.07,19.15-3.67,28.83-1.01,16.36-.5,32.7.73,49.03.21,2.79.46,5.59.77,8.37.61,5.45,1.2,10.91,1.92,16.35.84,6.24,1.55,12.51,3.24,18.62,3.08,11.14,6,22.32,9.11,33.45.89,3.19,1.37,6.38,1.25,9.68-.21,5.61-.39,11.21-.65,16.81-.21,4.57-.06,9.12.67,13.63.35,2.12.47,4.18-.04,6.25-1.11,4.53-2.24,9.06-3.42,13.58-1.24,4.76-2.31,9.55-2.48,14.47-.25,7.12-.26,14.25-.54,21.38-.19,4.84.57,9.54,1.56,14.23,1.94,9.15,4.7,18.07,7.75,26.9,3.5,10.15,7.02,20.3,10.55,30.44.77,2.23,1.27,4.46,1.12,6.86-.09,1.51.12,3.03.18,4.55.14,3.85.38,7.7.36,11.55,0,1.96-.33,3.96-.76,5.88-.68,3.05-2.24,5.59-4.83,7.49-1.31.96-2.49,2.11-3.65,3.27-.65.65-1.23,1.43-1.67,2.24-1.01,1.84-.59,3.48,1.21,4.47,2.5,1.38,5.28,2.13,8.08,1.86,3.99-.39,7.92-.22,11.87.22,2.78.31,5.59.48,8.36-.27,3.28-.89,4.3-2.14,4.12-5.45-.1-1.75-.43-3.48-.5-5.23-.3-6.88-1.08-13.75-.78-20.66.05-1.07-.09-2.06-.72-2.99-1.2-1.76-1.89-3.76-2.21-5.85-.48-3.11-1.09-6.23-1.23-9.36-.24-5.6-.22-11.21-.21-16.82,0-5.73.15-11.45.18-17.18.01-2.22.06-4.41.47-6.62.44-2.41.68-4.87.77-7.31.34-8.76.28-17.53-.2-26.28-.6-10.86-.96-21.72-.32-32.58.26-4.43.81-8.86,2.19-13.1,2.51-7.74,3.7-15.71,3.92-23.77.25-9.34-.02-18.69-.12-28.04-.09-8.06-.25-16.12-.37-24.18-.01-.93.03-1.87.12-2.8.91-9.65,1.83-19.3,2.74-28.95,1.03-10.95,1.5-21.91,1.17-32.91-.04-1.28-.08-2.59.13-3.85.19-1.12.53-2.3,1.14-3.24,1.14-1.75,2.88-1.63,3.86.18.44.81.79,1.71.97,2.61.48,2.4,1.06,4.81,1.23,7.24.64,9.1,1.01,18.21.61,27.32-.58,13.09-.44,26.17-.12,39.26.38,15.65.78,31.31.96,46.96.05,4.37.49,8.6,1.72,12.77.07.22.16.44.22.67,2.13,8.25,4.5,16.45,5.53,24.94.75,6.16,1.11,12.33-.29,18.47-.28,1.25-.51,2.52-.69,3.79-1.31,8.84-1.09,17.72-.55,26.59.48,7.92,1.31,15.83,2.05,23.74.84,8.97,1.19,17.95.58,26.95-.48,7.04-1.82,13.9-4.45,20.45-.9,2.23-1.33,4.4-1.3,6.78.1,8.18.22,16.36-1.02,24.48-.09.61.19,1.4.54,1.95,2.07,3.26,7.51,4.83,10.86,2.9,1.54-.89,3.02-1.12,4.66-1.11,2.57.03,5.14.12,7.71.14,1.87.01,3.74-.02,5.61-.08,1.67-.06,3.22-.59,4.63-1.46,2.27-1.4,2.71-3.02,1.26-5.3-.93-1.47-2.1-2.8-3.27-4.1-1.56-1.73-3.2-3.4-4.87-5.05-2.46-2.43-3.59-5.27-3.59-8.79.01-7.39.62-14.69,2.07-21.94,1.74-8.72,4.33-17.2,7-25.66,3.09-9.8,6.32-19.55,9.08-29.44,3.42-12.21,5.24-24.66,4.02-37.41-.66-6.9-1.99-13.64-4.48-20.11-1.93-5.01-2.49-10.2-2.38-15.48.1-4.79.52-9.57.75-14.35.22-4.57,0-9.13-1.29-13.54-.52-1.76-.51-3.42-.11-5.16,1.7-7.39,3.4-14.79,5.02-22.2,4.27-19.5,8.58-39,10.31-58.95.72-8.26,1.48-16.53,1.8-24.81.32-8.29.19-16.59.13-24.89-.06-8.43-1.06-16.79-2.38-25.09-2.02-12.68-4.18-25.34-6.26-38.01-1.74-10.62-2.73-21.31-2.97-32.07-.12-5.4.28-10.74,1.48-16.01,2.31-10.13,4.66-20.25,6.95-30.38,1.86-8.2,3.8-16.37,4.71-24.76.33-3.02.84-6.01,1.32-9.01.2-1.23.37-2.5,1.36-3.78.4.54.82.85.85,1.19.07.8.01,1.63-.09,2.44-.78,6.5-2.11,12.9-3.6,19.27-2.14,9.21-4.33,18.41-6.28,27.65-1.13,5.37-1.69,10.84-1.69,16.36,0,1.92.37,3.67,1.38,5.34,1.4,2.31,2.26,4.85,2.93,7.47,1.16,4.55,1.63,9.19,1.87,13.86.15,3.03.14,6.08.27,9.11q.35,8.13,3.35,15.59c.3.76.6,1.52.91,2.28,6.61,16.23,13.45,32.35,22.06,47.66.5.89.81,1.94,1.01,2.95.68,3.32,1.29,6.64,1.9,9.97,1.65,9.07,3.34,18.14,5.66,27.07,1.91,7.36,4.21,14.58,7.34,21.52.38.84.85,1.66,1.39,2.41.1.14,1.06-.04,1.12-.23.24-.76.38-1.58.38-2.37,0-3.19-.98-6.22-1.78-9.26-.89-3.38-1.93-6.73-2.88-10.1-.11-.39-.06-.82-.14-1.96.99,1.14,1.26,1.87,1.53,2.6,1.83,5.05,3.63,10.11,5.54,15.13.83,2.17,1.87,4.27,2.87,6.37.24.52.65.98,1.56.7.08-.46.23-1,.26-1.55.15-2.95-.37-5.84-1.15-8.65-1.32-4.72-2.81-9.39-4.23-14.08-.13-.42-.38-.88.43-1.14,1.07.87,1.71,2.13,2.21,3.4.9,2.28,1.69,4.6,2.42,6.94.94,3.01,1.75,6.05,2.67,9.07.62,2.02,1.49,3.94,2.84,5.59.32.39.86.61,1.37.95.26-.51.51-.8.56-1.11.1-.69.21-1.41.11-2.08-.41-2.53-.78-5.08-1.39-7.57-1.03-4.19-2.22-8.35-3.37-12.51-.3-1.1-.67-2.18-.07-3.84.86,1.48,1.05,2.72,1.36,3.91,1.21,4.63,2.33,9.28,3.61,13.89.66,2.35,1.56,4.65,2.43,6.93.29.74.8,1.42,1.33,2.02.13.14,1.04-.07,1.11-.27.24-.76.36-1.58.39-2.39.15-4.11-.56-8.15-1.11-12.2-1-7.29-2.07-14.57-2.97-21.86-.27-2.19-.2-4.44-.06-6.65.08-1.25.43-2.56.98-3.68.83-1.69,2.83-1.81,4.06-.38.53.62.86,1.41,1.4,2.01,2.81,3.1,6.2,4.92,10.51,4.53,1.07-.1,1.63-1.18,1.02-2.05-.53-.76-1.19-1.43-1.85-2.08-.84-.81-1.76-1.54-2.6-2.34-8.47-8.05-16.75-16.32-26.62-22.74-.55-.36-.99-.99-1.3-1.59-.43-.82-.7-1.73-1-2.61-4.63-13.78-7.43-27.96-9.3-42.34-.67-5.21-1.3-10.43-1.81-15.66-.28-2.9-.28-5.83-.44-8.74-.07-1.4-.15-2.79-.33-4.18-.47-3.75-1.91-7.21-3.36-10.66-1.4-3.34-2.9-6.64-4.23-10-1.26-3.17-1.86-6.47-1.73-9.93.3-8.29.46-16.59.67-24.88.07-2.92.09-5.84.16-8.76.06-2.46.41-4.86,1.31-7.19,1.19-3.06,1.67-6.31,2.05-9.56.6-5.12.68-10.25.66-15.4,0-1.75.07-3.51.29-5.24,1.12-8.68-1.36-16.15-7.35-22.49-2.5-2.65-5.32-4.94-8.45-6.78-3.72-2.18-7.49-4.31-11.36-6.22-5.44-2.69-11-5.14-16.48-7.74-4.65-2.2-9.13-4.7-13.31-7.73-1.32-.96-2.69-1.84-4.11-2.64-2.78-1.55-4.71-3.8-5.8-6.77-.89-2.43-1.33-4.95-1.36-7.55-.06-4.82.76-9.54,1.7-14.24,1.03-5.16,1.95-10.31,1.9-15.61-.02-2.79.3-5.6,1.22-8.28.12-.35.45-.63.93-1.27.4,2.57-.73,4.85.46,6.88,1.8-.25,1.93-.22,2.31-.75,1.15-1.6,2.33-3.2,3.35-4.89,1.24-2.04,1.41-4.43,1.93-6.69.77-3.32,1.08-6.69.82-10.09-.07-.91-.17-1.86-1.38-2.43-.87.81-1.75,1.63-2.95,2.75-.03-.93-.06-1.46-.05-1.99.07-4.44.43-8.89.18-13.31-.55-9.95-4.61-18.23-12.57-24.43-3.71-2.89-7.79-5.16-12.07-7.06-1.05-.47-2.23-.77-3.37-.87-5.04-.44-10.04-.25-14.89,1.38-9.36,3.15-16.79,8.58-21.08,17.75-.3.63-.65,1.24-1.01,1.84-1.75,2.86-2.63,5.97-2.72,9.31-.11,4.09-.09,8.18.55,12.24.2,1.22.43,2.49-.03,3.84-.44-.16-.78-.23-1.06-.39-.41-.23-.75-.56-1.16-.78-1.2-.65-2.22-.33-2.39.94-.27,1.95-.42,3.94-.4,5.91.02,2.22.29,4.43.42,6.64.24,3.89,3.52,9.42,6.94,11.64.09.06.23.02.59.05.49-.67,1.05-1.44,1.74-2.37.22.54.41.83.46,1.14.44,2.77.8,5.55,1.3,8.3.93,5.07,1.4,10.16,1.28,15.33-.13,5.37-.02,10.75-.03,16.13-.02,4.67.19,3.96-3.5,6.49-12.69,8.69-26.26,15.68-40.8,20.69-5.85,2.02-10.55,5.48-14.2,10.36-1.6,2.14-3.01,4.46-4.2,6.86-3.16,6.37-4.65,13.2-4.98,20.27-.29,6.21-.03,12.37,2.42,18.26.57,1.38.79,2.93,1.06,4.42.83,4.6,1.21,9.25,1.41,13.93.37,8.75.2,17.55,1.51,26.23.71,4.67.11,9.08-1.43,13.42-.97,2.75-2.14,5.43-3.25,8.13-1.74,4.22-3.28,8.52-4.05,13.01-.62,3.67-.95,7.41-1.13,11.14-.22,4.55-.07,9.12-.2,13.67-.14,5.26-.43,10.51-2.34,15.51-.25.65-.35,1.35-.52,2.03-1.6,6.46-3.09,12.95-4.83,19.36-.92,3.37-2.18,6.65-3.48,9.9-.64,1.6-1.64,3.09-2.64,4.52-.97,1.39-2.29,2.34-4.13,2.19-1.76-.14-3.18.66-4.46,1.71-1.08.88-2.11,1.85-3.05,2.89-1.57,1.73-3.03,3.56-4.57,5.32-4.22,4.84-8.29,9.83-13.3,13.91-.44.36-.82.83-1.14,1.31-.43.65-.11,1.78.6,2.14.41.2.87.33,1.32.39,1.98.3,3.75-.31,5.2-1.59,1.66-1.46,3.16-3.1,4.74-4.66.98-.97,1.67-2.27,3.06-2.74.94.52,1.38,1.34,1.54,2.29.26,1.61.67,3.24.6,4.85-.21,5.01-.59,10.02-.96,15.03-.45,5.94-1.03,11.87-1.4,17.81-.12,1.96.17,3.96.35,5.94.06.68.29,1.37.58,2,.17.37.58.82.93.86.34.05.92-.28,1.1-.6.5-.91.99-1.88,1.22-2.88.57-2.5,1.13-5.01,1.45-7.55.6-4.87,1.01-9.76,1.54-14.63.05-.49.35-.96.54-1.44.35,1.25.35,2.41.23,3.55-.58,5.34-1.23,10.67-1.8,16.01-.29,2.67-.46,5.35-.67,8.03-.1,1.2.02,2.33.9,3.27.51.55,1.5.64,1.8-.01.64-1.36,1.38-2.75,1.64-4.2.82-4.47,1.48-8.98,2.12-13.49.41-2.89.64-5.8,1.05-8.69.1-.7-.04-1.69,1.19-2.03.61.79.56,1.68.44,2.59-.42,3.12-.93,6.24-1.25,9.37-.39,3.83-.66,7.68-.9,11.52-.09,1.38-.04,2.8,1.12,4.58Z"/>
          <path d="M424.62,168.01c1.89,1.72,2.59,3.95,3.35,6.12,2.74,7.72,4.53,15.65,5.33,23.83.55,5.61.6,11.17-.12,16.76-.65,5.02-1.91,9.84-4.36,14.31-3.12,5.7-7.79,9.52-14.01,11.41-.52.16-1.09.12-1.76-.23.38-.19.74-.46,1.14-.57,7.3-1.98,12.11-6.74,15.09-13.51,2.24-5.08,3.25-10.46,3.49-15.98.59-13.98-1.98-27.39-7.43-40.27-.26-.61-.48-1.24-.72-1.87Z"/>
          <path d="M486.86,168.6c-.49.89-.57,1.23-.79,1.42-4.59,4.02-7.06,9.29-8.46,15.04-3.11,12.79-2.6,25.48,1.82,37.93,1.22,3.43,2.92,6.63,5.19,9.49,2.23,2.8,4.92,5.01,8.4,6.06,1.43.43,2.94.59,4.71.93-2.27.57-2.61.59-4.08.21-2.77-.73-5.17-2.1-7.28-4.02-2.36-2.16-4.14-4.75-5.62-7.56-2.74-5.23-4.22-10.86-5.16-16.65-.79-4.87-.92-9.77-.66-14.68.34-6.33,1.48-12.52,4.09-18.36,1.49-3.34,3.45-6.37,6.25-8.78.3-.26.67-.44,1.58-1.03Z"/>
          <path d="M503.19,396.82c.22,1.01-.58,1.27-1.06,1.67-3.77,3.12-8.15,5-12.88,6.02-8.84,1.91-17.41.92-25.67-2.71-1.67-.74-3.4-1.49-4.65-3.06,15.15,7.78,29.95,8.62,44.27-1.92Z"/>
          <path d="M406.96,396.88c2.11,1.44,4.13,3.06,6.37,4.28,2.24,1.22,4.63,2.28,7.07,2.98,2.45.7,5.03,1.1,7.58,1.2,2.54.11,5.16-.06,7.66-.56,2.49-.5,4.95-1.4,7.26-2.46,2.27-1.04,4.34-2.51,6.9-4.02-8.75,11.15-33.93,10.19-42.83-1.41Z"/>
          <path d="M498.59,330.77c-10.11-6.47-20.1-5.32-30.27.32,1.22-1.75,1.99-2.23,5.09-3.48,5.24-2.11,10.67-2.39,16.16-1.52,4.08.65,6.78,2.17,9.03,4.68Z"/>
          <path d="M409.64,328.99c2.25-2.15,4.46-2.49,6.49-2.97,5.56-1.31,11.1-.84,16.5.9,2.56.82,5.19,1.64,6.96,4-1.85-.86-3.64-1.85-5.55-2.55-1.84-.68-3.77-1.19-5.7-1.53-2.05-.36-4.15-.58-6.22-.57-1.96.01-3.95.27-5.86.68-1.98.43-3.89,1.18-6.62,2.04Z"/>
          <path d="M418.24,544.8c3.09-2.32,6.3-2.48,9.57-2.29,2.93.17,5.61,1.07,8.4,3.29-9.68-2.95-7.43-3.51-17.96-1Z"/>
          <path d="M492.41,547.08c-5.78-3.24-11.4-4.2-17.17.42.94-2.12,2.42-3.03,5.43-3.65,4.49-.93,8.4.28,11.74,3.24Z"/>
          <path d="M389.14,283.15c-1.9,2.56-3.66,3.81-6.21,4.52-1.13.32-2.33,1.03-4.01-.15,1.32-.18,2.2-.23,3.03-.43.78-.19,1.56-.5,2.28-.86.83-.41,1.61-.93,2.4-1.42.65-.41,1.28-.84,2.51-1.66Z"/>
          <path d="M520.81,285.09c2.5,1.48,4.95,2.94,8.35,3.04-.54.45-.76.79-.95.77-3.13-.23-5.23-1.26-7.4-3.81Z"/>
          <path d="M158.48,171.9c.04-2.53.98-3.98,2-5.37,1.34-1.82,3.14-3.08,5.16-4.08,3.18-1.57,6.61-2.33,10.07-2.69,7.54-.79,15.11-.84,23.41-.75-.99.5-1.38.86-1.78.87-4.31.09-8.63.12-12.94.16-4.32.03-8.61.43-12.83,1.39-1.58.36-3.15.84-4.65,1.46-3.47,1.43-6.2,3.67-7.45,7.38-.13.39-.42.72-.99,1.65Z"/>
          <path d="M103.07,159.36c.24-.21.31-.32.38-.32,7.57-.05,15.16-.23,22.69.69,3.12.38,6.18,1.17,8.96,2.75,3.02,1.72,5.35,4.03,6.43,7.54-.92.17-.98-.52-1.18-.93-1.77-3.55-4.68-5.71-8.33-7.01-3.88-1.39-7.92-1.92-12-2.02-4.78-.11-9.56-.06-14.34-.11-.87,0-1.81.12-2.61-.59Z"/>
          <path d="M139.44,362.68c-9.42-4.77-21.52-17-23.15-22.97,1.61,2.19,2.84,3.99,4.2,5.69,1.3,1.64,2.67,3.24,4.11,4.76,1.52,1.6,3.12,3.14,4.77,4.61,1.56,1.4,3.19,2.71,4.84,4,1.72,1.34,3.49,2.61,5.24,3.91Z"/>
          <path class="cls-3" d="M113.41,194.84c-.09-.09-.18-.17-.27-.26-.16-.9-.48-1.81-.46-2.7.04-1.57,1.33-2.78,2.89-2.96,1.41-.16,2.83.61,3.44,1.86.66,1.35.29,3.22-.81,4.15-1.62,1.36-3.21.9-4.79-.08Z"/>
          <path d="M184.28,341.6c-2.03,6.33-15.22,18.74-22.7,21.58,1.35-1.71,3.08-2.17,4.39-3.2,1.28-1.01,2.65-1.91,3.92-2.94,1.36-1.1,2.69-2.25,3.97-3.44,1.28-1.2,2.51-2.44,3.7-3.72,1.11-1.2,2.16-2.45,3.19-3.72,1.08-1.33,2.1-2.7,3.53-4.56Z"/>
          <path d="M169.63,550.26c-.84-.51-1.23-.67-1.51-.94-2-1.91-3.18-4.3-3.98-6.89-1.32-4.26-1.82-8.66-2.16-13.08-.01-.18.14-.37.27-.67.76,1.07.66,2.26.83,3.39.4,2.65.79,5.3,1.31,7.93.67,3.38,2.04,6.43,4.54,8.9.21.2.29.54.7,1.37Z"/>
          <path d="M138.69,526.8c.32,2.87-.01,5.06-.22,7.22-.34,3.61-1.15,7.12-2.76,10.41-.81,1.67-1.72,3.27-3.16,4.49-.76-.47-.24-.83-.02-1.11,2.99-3.64,4.28-7.96,4.9-12.51.32-2.3.45-4.63.69-6.95.03-.31.21-.61.56-1.56Z"/>
          <path d="M265.21,394.61c-6.18-1.83-11.14-7.03-13.22-13.9,1.76,1.83,2.28,3.88,3.47,5.49,1.32,1.78,2.84,3.35,4.4,4.91,1.46,1.46,3.72,1.65,5.35,3.5Z"/>
          <path d="M48.03,381.65c-.8,3.43-2.4,6.38-4.92,8.89-2.23,2.22-4.3,3.71-6.84,4.35,2.54-2.2,5.14-3.71,7.2-5.96,2-2.19,2.67-5.09,4.56-7.28Z"/>
          <path d="M115.28,545.98c-4.15-5.18-5.76-11.15-5.34-18.15.96,1.39.45,2.62.65,3.74.23,1.26.34,2.55.62,3.79.28,1.24.65,2.48,1.11,3.67.46,1.19,1.02,2.35,1.63,3.47.59,1.09,1.3,2.12,1.96,3.18-.21.1-.42.19-.63.29Z"/>
          <path d="M185.82,545.21c1.14-2.66,2.48-5.25,3.36-7.99.87-2.73,1.27-5.6,1.89-8.49.61,5.14-1.5,12.15-5.25,16.48Z"/>
          <path d="M76.2,281.28c2.36,1.95,4.85,3.52,8.38,3.92-3.37.75-6.06-.52-8.38-3.92Z"/>
          <path d="M224.94,283.79c-2.07,1.54-4.29,2.62-7.28,2.2.68-1.08,1.6-.64,2.29-.86.88-.28,1.77-.52,2.61-.87.71-.3,1.37-.73,2.06-1.1.11.21.22.41.32.62Z"/>
        </g>
        <g>
          <path class="cls-1" d="M158.87,337.82c24.47.13,46.31,1.89,38.58-32.97-2.88-12.98-3.61-22.37-17.01-25.97-4.83-1.3-17.69-2.83-30.08-2.82h-.56c-12.39-.02-25.25,1.52-30.08,2.82-13.41,3.6-14.13,12.99-17.01,25.97-7.73,34.86,14.11,33.11,38.58,32.97h17.58Z"/>
          <path class="cls-1" d="M460.88,319.27c24.47.09,38.1,2.51,38.58-23.07.15-8.02-2.64-12.23-4.46-14.05-6.25-6.25-30.25-6.1-42.63-6.09h.08c-12.39-.01-36.38-.16-42.63,6.09-1.82,1.82-4.61,6.02-4.46,14.05.48,25.58,14.11,23.16,38.58,23.07h16.93Z"/>
          <path class="cls-1" d="M160.08,247.45c31.62.13,49.04-16.26,49.85-48.47.33-13.29-9.28-24.89-22.38-27.17-12.4-2.16-63.02-2.16-75.43,0-13.1,2.28-22.71,13.87-22.38,27.17.81,32.21,18.23,48.6,49.85,48.47h20.48Z"/>
          <path class="cls-1" d="M464.42,247.45c31.62.13,49.04-16.26,49.85-48.47.33-13.29-9.28-24.89-22.38-27.17-12.4-2.16-63.02-2.16-75.43,0-13.1,2.28-22.71,13.87-22.38,27.17.81,32.21,18.23,48.6,49.85,48.47h20.48Z"/>
          <path class="cls-1" d="M69.11,204.82c-4.67.88-8.68,5.48-6.49,14.82,3,12.83,1.21,21.77,2.52,29.4,1.15,6.73,8.63,7.62,15.24,7.06,4.23-.36,7.51-3.95,7.42-8.19-.15-6.59-3.28-14.07-3.49-20.39-.01-.36-.29-26.17-15.19-22.71Z"/>
          <path class="cls-1" d="M231.8,204.82c4.67.88,9.08,5.59,6.49,14.82-4.68,16.71-1.21,21.77-2.52,29.4-1.15,6.73-8.63,7.62-15.24,7.06-4.23-.36-9.01-3.79-8.92-8.03.15-6.59,4.08-14.39,4.29-20.7.01-.36.99-26.02,15.89-22.56Z"/>
          <path class="cls-1" d="M372.19,204.82c-4.67.88-8.68,5.48-6.49,14.82,3,12.83,1.21,21.77,2.52,29.4,1.15,6.73,8.63,7.62,15.24,7.06,4.23-.36,7.51-3.95,7.42-8.19-.15-6.59-3.28-14.07-3.49-20.39-.01-.36-.29-26.17-15.19-22.71Z"/>
          <path class="cls-1" d="M534.46,204.82c4.67.88,9.08,5.59,6.49,14.82-4.68,16.71-1.21,21.77-2.52,29.4-1.15,6.73-8.63,7.62-15.24,7.06-4.23-.36-9.01-3.79-8.92-8.03.15-6.59,4.08-14.39,4.29-20.7.01-.36.99-26.02,15.89-22.56Z"/>
          <path class="cls-1" d="M114.65,513.6c43.03,6.74,21.14-16.99,26.79-55.79,2.21-15.17,8.23-35.86-12.68-40.37-13.41-2.38-33.43-2.5-35.79,14.86-3.64,20.99,1.72,39.51,9.46,58.81,2.78,6.94,4.26,20.85,12.21,22.5Z"/>
          <path class="cls-1" d="M187.04,513.43c-43.03,6.74-23.49-14.74-27.52-52.94-1.83-17.39-6.73-39.08,14.18-43.59,13.41-2.38,31.36-2.8,33.71,14.55,3.64,20.99-6.76,40.57-9.94,61.12-1.35,8.72-2.47,19.2-10.43,20.86Z"/>
          <path class="cls-1" d="M122.36,646.18c9.09,1.54,12.99-13.42,13.42-22.48,1.29-27.17-.29-44.95-3.62-50.94-6.57-11.79-27.45-5.03-30.18,5.34-4.37,20.34.28,64.68,20.37,68.08Z"/>
          <path class="cls-1" d="M178.71,646.18c-9.09,1.54-12.48-13.45-13.42-22.48-3.67-35.26.29-44.95,3.62-50.94,6.57-11.79,28.99-8.91,31.71,1.46,4.37,20.34-1.81,68.56-21.91,71.96Z"/>
          <path class="cls-1" d="M413.91,514.56c43.03,6.74,25.65-17.95,31.31-56.76,2.21-15.17,8.23-35.86-12.68-40.37-13.41-2.38-39.27-1.93-37.22,15.47,2.28,19.37,6.79,28.97,10.19,49.48,2.44,14.71-1.13,30.4,8.41,32.18Z"/>
          <path class="cls-1" d="M488.36,513.71c-33.21,2.95-23.43-17.22-27.24-55.42-1.73-17.39-3.39-36.89,16.38-41.39,12.69-2.38,29.66-2.8,31.89,14.55,3.44,20.99-6.4,40.57-9.41,61.12-1.28,8.72-4.1,19.48-11.63,21.14Z"/>
          <path class="cls-1" d="M428.8,646.18c9.09,1.54,12.99-13.42,13.42-22.48,1.29-27.17-.29-44.95-3.62-50.94-6.57-11.79-27.45-5.03-30.18,5.34-4.37,20.34.28,64.68,20.37,68.08Z"/>
          <path class="cls-1" d="M480.1,646.18c-8.55,1.54-11.74-13.45-12.63-22.48-3.45-35.26.27-44.95,3.41-50.94,6.18-11.79,27.27-8.91,29.83,1.46,4.11,20.34-1.71,68.56-20.61,71.96Z"/>
          <path class="cls-1" d="M58.27,333.68c16.76,18.19,31.07-20.53,26.9-41.38-1.15-5.76-29.75-16.24-29.35,9.14.4,24.84-2.83,26.52,2.45,32.24Z"/>
          <path class="cls-1" d="M242.67,334.37c-19.63,15.05-31.07-20.53-26.9-41.38,1.15-5.76,29.75-16.24,29.35,9.14-.4,24.84,7.55,24.58-2.45,32.24Z"/>
        </g>
        <circle class="cls-2" cx="133.77" cy="92.9" r="3.7"/>
        <circle class="cls-2" cx="150.12" cy="76.53" r="3.7"/>
        <circle class="cls-2" cx="421.73" cy="90.45" r="3.7"/>
        <circle class="cls-2" cx="484.87" cy="90.45" r="3.7"/>
        <circle class="cls-2" cx="130.78" cy="126.08" r="3.7"/>
        <circle class="cls-2" cx="454.66" cy="126.08" r="3.7"/>
        <circle class="cls-2" cx="477.8" cy="126.08" r="3.7"/>
        <circle class="cls-2" cx="119.9" cy="312.05" r="3.7"/>
        <circle class="cls-2" cx="113.59" cy="191.71" r="3.7"/>
        <circle class="cls-2" cx="497.28" cy="345.25" r="3.7"/>
        <circle class="cls-2" cx="485.4" cy="300.73" r="3.7"/>
        <circle class="cls-2" cx="454.66" cy="300.73" r="3.7"/>
        <circle class="cls-2" cx="454.66" cy="199.1" r="3.7"/>
        <circle class="cls-2" cx="485.4" cy="199.1" r="3.7"/>
        <circle class="cls-2" cx="66.68" cy="323.85" r="3.7"/>
        <circle class="cls-2" cx="538.09" cy="323.85" r="3.7"/>
        <circle class="cls-2" cx="53.03" cy="323.85" r="3.7"/>
        <circle class="cls-2" cx="53.83" cy="359.51" r="3.7"/>
        <circle class="cls-2" cx="42.15" cy="359.51" r="3.7"/>
        <circle class="cls-2" cx="27.64" cy="433.89" r="3.7"/>
        <circle class="cls-2" cx="469.34" cy="716.5" r="3.7"/>
        <circle class="cls-2" cx="127.16" cy="677.16" r="3.7"/>
        <circle class="cls-2" cx="376.31" cy="222.47" r="3.7"/>
        <circle class="cls-2" cx="363.94" cy="222.47" r="3.7"/>
        <circle class="cls-2" cx="72.5" cy="277.26" r="3.7"/>
        <circle class="cls-2" cx="333.25" cy="433.89" r="3.7"/>
        <circle class="cls-2" cx="483.45" cy="459.67" r="3.7"/>
        <circle class="cls-2" cx="487.73" cy="592.85" r="3.7"/>
        <circle class="cls-2" cx="182.19" cy="593.31" r="3.7"/>
        <circle class="cls-2" cx="511.63" cy="459.67" r="3.7"/>
        <circle class="cls-2" cx="504.16" cy="592.85" r="3.7"/>
        <circle class="cls-2" cx="168.14" cy="126.08" r="3.7"/>
        <circle class="cls-2" cx="185.33" cy="191.71" r="3.7"/>
        <circle class="cls-2" cx="165.15" cy="92.9" r="3.7"/>
        <circle class="cls-2" cx="529.67" cy="222.47" r="3.7"/>
        <circle class="cls-2" cx="543.13" cy="222.47" r="3.7"/>
        <circle class="cls-2" cx="182.72" cy="459.67" r="3.7"/>
        <circle class="cls-2" cx="172.95" cy="710.17" r="3.7"/>
        <circle class="cls-2" cx="150.42" cy="312.05" r="3.7"/>
        <circle class="cls-2" cx="179.02" cy="312.05" r="3.7"/>
        <circle class="cls-2" cx="150.26" cy="191.71" r="3.7"/>
        <circle class="cls-2" cx="226.42" cy="222.47" r="3.7"/>
        <circle class="cls-2" cx="245.09" cy="359.51" r="3.7"/>
        <circle class="cls-2" cx="271.28" cy="433.89" r="3.7"/>
        <circle class="cls-2" cx="256.77" cy="392.82" r="3.7"/>
        <circle class="cls-2" cx="171.76" cy="677.16" r="3.7"/>
        <circle class="cls-2" cx="358.48" cy="359.51" r="3.7"/>
        <circle class="cls-2" cx="547.83" cy="359.51" r="3.7"/>
        <circle class="cls-2" cx="258.11" cy="359.51" r="3.7"/>
        <circle class="cls-2" cx="529.67" cy="277.26" r="3.7"/>
        <circle class="cls-2" cx="543.13" cy="277.26" r="3.7"/>
        <circle class="cls-2" cx="422.92" cy="677.16" r="3.7"/>
        <circle class="cls-2" cx="484.89" cy="677.16" r="3.7"/>
        <circle class="cls-2" cx="576.89" cy="433.89" r="3.7"/>
        <circle class="cls-2" cx="369.55" cy="323.85" r="3.7"/>
        <circle class="cls-2" cx="226.42" cy="277.26" r="3.7"/>
        <circle class="cls-2" cx="150.12" cy="34.63" r="3.7"/>
        <circle class="cls-2" cx="427.61" cy="126.08" r="3.7"/>
        <circle class="cls-2" cx="72.5" cy="222.47" r="3.7"/>
        <circle class="cls-2" cx="560.09" cy="392.5" r="3.7"/>
        <circle class="cls-2" cx="42.15" cy="392.82" r="3.7"/>
        <circle class="cls-2" cx="116.2" cy="459.67" r="3.7"/>
        <circle class="cls-2" cx="116.73" cy="593.31" r="3.7"/>
        <circle class="cls-2" cx="125.98" cy="710.17" r="3.7"/>
        <circle class="cls-2" cx="396.06" cy="459.67" r="3.7"/>
        <circle class="cls-2" cx="410.36" cy="345.25" r="3.7"/>
        <circle class="cls-2" cx="422.25" cy="300.73" r="3.7"/>
        <circle class="cls-2" cx="422.25" cy="199.1" r="3.7"/>
        <circle class="cls-2" cx="250.11" cy="323.85" r="3.7"/>
        <circle class="cls-2" cx="347.56" cy="392.5" r="3.7"/>
        <circle class="cls-2" cx="424.19" cy="459.67" r="3.7"/>
        <circle class="cls-2" cx="419.92" cy="592.85" r="3.7"/>
        <circle class="cls-2" cx="404.23" cy="592.85" r="3.7"/>
        <circle class="cls-2" cx="376.31" cy="277.26" r="3.7"/>
        <circle class="cls-2" cx="363.94" cy="277.26" r="3.7"/>
        <circle class="cls-2" cx="438.3" cy="716.5" r="3.7"/>
        <circle class="cls-2" cx="232.24" cy="323.85" r="3.7"/>
      </g>
    </g>
  </g>
</svg>